<svg width="50" height="50" viewBox="0 0 50 50" fill="none" xmlns="http://www.w3.org/2000/svg">
<path d="M40 0.625H10C4.79166 0.625 0.625 4.79165 0.625 10V40C0.625 45.2084 4.79166 49.375 10 49.375H40C45.2084 49.375 49.3751 45.2084 49.3751 40V9.99999C49.3751 4.79165 45.2084 0.625 40 0.625ZM42.7084 6.25H43.75V14.5833H35.4167V6.25H42.7084ZM18.1251 20C19.5834 17.9167 22.2917 16.4583 25.0001 16.4583C27.7084 16.4583 30.4167 17.9167 31.8751 20C32.9167 21.4583 33.5417 23.125 33.5417 25C33.5417 29.7917 29.5834 33.5417 25.0001 33.5417C20.4167 33.5417 16.4584 29.7917 16.4584 25C16.4584 23.125 17.0834 21.4583 18.1251 20ZM44.5834 40C44.5834 42.5 42.5 44.5834 40 44.5834H10C7.50003 44.5834 5.41667 42.5 5.41667 40V20H12.7083C12.0833 21.4583 11.6667 23.3334 11.6667 25C11.6667 32.2917 17.7084 38.3334 25 38.3334C32.2917 38.3334 38.3334 32.2917 38.3334 25C38.3334 23.3334 37.9166 21.4583 37.2917 20H44.5833L44.5834 40Z" fill="white"/>
</svg>
