<svg width="19" height="18" viewBox="0 0 19 18" fill="none" xmlns="http://www.w3.org/2000/svg">
<path d="M9.47357 8.25C10.0981 8.25 10.7087 8.07405 11.228 7.74441C11.7473 7.41477 12.1521 6.94623 12.3911 6.39805C12.6301 5.84987 12.6926 5.24667 12.5708 4.66473C12.4489 4.08279 12.1482 3.54824 11.7065 3.12868C11.2649 2.70912 10.7022 2.4234 10.0896 2.30765C9.47707 2.19189 8.84212 2.2513 8.26509 2.47836C7.68806 2.70543 7.19487 3.08994 6.84788 3.58329C6.50088 4.07664 6.31567 4.65666 6.31567 5.25C6.31567 6.04565 6.64838 6.80871 7.2406 7.37132C7.83282 7.93393 8.63604 8.25 9.47357 8.25Z" fill="white"/>
<path d="M14.2104 15.75C14.4198 15.75 14.6206 15.671 14.7687 15.5303C14.9167 15.3897 14.9999 15.1989 14.9999 15C14.9999 13.6076 14.4177 12.2723 13.3813 11.2877C12.3449 10.3031 10.9393 9.75 9.47358 9.75C8.00791 9.75 6.60227 10.3031 5.56589 11.2877C4.5295 12.2723 3.94727 13.6076 3.94727 15C3.94727 15.1989 4.03044 15.3897 4.1785 15.5303C4.32655 15.671 4.52736 15.75 4.73674 15.75H14.2104Z" fill="white"/>
</svg>
