<svg width="86" height="66" viewBox="0 0 86 66" fill="none" xmlns="http://www.w3.org/2000/svg">
<path d="M47.3907 19.4765L47.3954 19.7233L35.161 37.4968C33.1797 37.4062 31.1922 37.7546 29.3047 38.5312C28.4735 38.8702 27.6954 39.2858 26.9641 39.7655L0.0969246 28.7077C0.0969246 28.7077 -0.52495 38.9358 2.06567 46.5577L21.0594 54.3952C21.9969 58.6577 24.9344 62.3952 29.25 64.1921C32.6453 65.6028 36.4616 65.6083 39.8609 64.2074C43.2602 62.8064 45.9644 60.1135 47.3797 56.7202C48.1454 54.8765 48.5 52.939 48.4485 51.0077L65.9532 38.4999L66.3829 38.5077C76.8594 38.5077 85.375 29.9671 85.375 19.4765C85.3726 14.4375 83.3718 9.60509 79.8114 6.03919C76.2511 2.47328 71.4219 0.464932 66.3829 0.45459C55.911 0.45459 47.3907 8.98584 47.3907 19.4765ZM44.4532 55.4921C42.1813 60.9452 35.9125 63.5343 30.4641 61.264C27.9485 60.2171 26.0532 58.2983 24.9579 56.0108L31.1407 58.5733C32.0958 58.9709 33.1199 59.1764 34.1545 59.178C35.189 59.1797 36.2138 58.9775 37.1702 58.5829C38.1265 58.1884 38.9958 57.6093 39.7283 56.8787C40.4608 56.148 41.0421 55.2803 41.4391 54.3249C42.243 52.3945 42.2478 50.2239 41.4523 48.29C40.6569 46.3561 39.1264 44.817 37.1969 44.0108L30.7907 41.3624C33.2563 40.4249 36.0594 40.3937 38.6813 41.4827C41.3376 42.5812 43.3688 44.6499 44.4563 47.2952C45.5438 49.9405 45.5375 52.8577 44.4407 55.4921M66.3844 32.1562C59.4094 32.1562 53.7313 26.4687 53.7313 19.4796C53.735 16.123 55.0686 12.9047 57.4402 10.5294C59.8117 8.15404 63.0279 6.81525 66.3844 6.80615C69.7415 6.81442 72.9585 8.15285 75.3307 10.5283C77.7029 12.9037 79.037 16.1225 79.0407 19.4796C79.0378 22.8372 77.7041 26.0568 75.3318 28.4329C72.9595 30.809 69.742 32.1479 66.3844 32.1562ZM56.9032 19.4593C56.9032 14.1999 61.161 9.93584 66.4032 9.93584C71.6454 9.93584 75.9094 14.2015 75.9094 19.4593C75.9107 21.9822 74.91 24.4023 73.1273 26.1876C71.3447 27.9728 68.9261 28.9771 66.4032 28.9796C63.8811 28.9759 61.4637 27.971 59.682 26.1859C57.9004 24.4008 56.9019 21.9814 56.9032 19.4593Z" fill="white"/>
</svg>
