<svg width="59" height="48" viewBox="0 0 59 48" fill="none" xmlns="http://www.w3.org/2000/svg">
<path d="M58.6269 5.93304C56.4843 6.88316 54.1794 7.52577 51.7622 7.81277C54.2302 6.33412 56.1242 3.99449 57.0181 1.20208C54.7088 2.57199 52.1499 3.56578 49.4288 4.10144C47.2487 1.77963 44.1426 0.328613 40.7031 0.328613C34.104 0.328613 28.7518 5.68081 28.7518 12.2799C28.7518 13.2167 28.8579 14.1284 29.0628 15.0037C19.1303 14.5055 10.3235 9.74776 4.4285 2.51495C3.39995 4.2797 2.80992 6.33412 2.80992 8.52402C2.80992 12.6694 4.92138 16.329 8.12646 18.4717C6.16829 18.4102 4.32422 17.8728 2.71366 16.9752C2.71277 17.026 2.71277 17.0768 2.71277 17.1267C2.71277 22.9175 6.83409 27.7474 12.3004 28.8445C11.2986 29.119 10.2406 29.2643 9.15233 29.2643C8.38048 29.2643 7.63268 29.1903 6.90361 29.0513C8.42415 33.7983 12.8369 37.2538 18.0679 37.351C13.9769 40.557 8.82434 42.467 3.22347 42.467C2.26088 42.467 1.3072 42.4108 0.374023 42.2994C5.66026 45.6917 11.9438 47.6694 18.6927 47.6694C40.6755 47.6694 52.6972 29.4586 52.6972 13.6641C52.6972 13.1462 52.6856 12.6302 52.6624 12.1186C54.9994 10.4341 57.0253 8.32972 58.6269 5.93304Z" fill="#F1F2F2"/>
</svg>
